# xmcd
#
# Track frame offsets: 
#        150
#        11826
#        24522
#        37586
#        58554
#        82104
#        93959
#        104392
#        121563
#        129547
#
# Disc length: 2504 seconds
#
# Revision: 1
# Processed by: cddbd v1.5.2PL0 Copyright (c) Steve Scherf et al.
# Submitted via: ExactAudioCopy v0.99pb4
#
DISCID=6f09c60a
DTITLE=Nina Simone - Tell it Like it is
DYEAR=2008
DGENRE=Jazz
TTITLE0=Cosi Ti Amo 'To love Somebody' 
TTITLE1=To Be Young Gifted And Black (studio version)
TTITLE2=Ain't Got No-I Got Life (studio version)
TTITLE3=Turn! Turn! Turn! 'To Everthing There Is A Season' (live, Muni
TTITLE3=ch 1969)
TTITLE4=Suzanne (live, philharmonic hall new york 1969)
TTITLE5=Peace Of Mind (studio version)
TTITLE6=Do I Move You (version II)
TTITLE7=Come Ye
TTITLE8=Take My Hand, Precious Lord (remix)
TTITLE9=Why? 'The King Of Love Is Dead' (unedited version)
EXTD=YEAR: 1969
EXTT0=
EXTT1=
EXTT2=
EXTT3=
EXTT4=
EXTT5=
EXTT6=
EXTT7=
EXTT8=
EXTT9=
PLAYORDER=
